name processed_emg_signals
nRows=60
nColumns=7
 
endheader
time	RGLTMED	RRF	RADDLONG	RST	RTA	RGM
2.1751999999999985	0.0075552938559636	0.0157750165290091	0.0933099281351234	0.0135333595596135	0.0177814190979568	0.0233559639917285
2.1851999999999983	0.0075694359882126	0.0158515461498889	0.0934874863602384	0.0135761304163505	0.0178180015794496	0.0233714721216634
2.1951999999999985	0.0075823972774015	0.0159275962703087	0.0936848514295983	0.0136191398527607	0.0178555427730934	0.0233847020266298
2.2051999999999983	0.0075941710636285	0.0160031220419921	0.0939020317523371	0.0136623500200477	0.0178939943889394	0.0233955680657736
2.215199999999998	0.0076047526139302	0.0160780798340392	0.0941390215324342	0.013705723932919	0.0179333082223543	0.0234039892826845
2.2251999999999983	0.0076141391346463	0.0161524272070994	0.094395800354465	0.0137492255146557	0.0179734361523418	0.0234098896299962
2.235199999999998	0.0076223297787887	0.016226122883647	0.094672332773352	0.0137928196344856	0.018014330137262	0.0234131981772419
2.2451999999999983	0.0076293256482815	0.0162991267149206	0.094968567910649	0.0138364721371495	0.0180559422081994	0.0234138493008075
2.255199999999998	0.0076351297909918	0.0163713996450735	0.0952844390601278	0.0138801498645988	0.0180982244602754	0.0234117828548826
2.2651999999999983	0.0076397471925281	0.0164429036730682	0.0956198633055931	0.0139238206698402	0.0181411290422537	0.0234069443223862
2.275199999999998	0.0076431847628324	0.0165136018128238	0.0959747411539659	0.0139674534230622	0.0181846081448474	0.0233992849449733
2.2851999999999983	0.007645451317623	0.0165834580521154	0.096348956186789	0.014011018010301	0.0182286139881856	0.023388761831418
2.295199999999998	0.0076465575547661	0.0166524373107106	0.0967423747333734	0.0140544853250207	0.0182730988089356	0.0233753380439013
2.3051999999999984	0.0076465160256728	0.0167205053982098	0.0971548455688121	0.0140978272530527	0.0183180148475825	0.0233589826619858
2.315199999999998	0.0076453411018324	0.0167876289720307	0.0975861996400453	0.0141410166513816	0.0183633143363524	0.0233396708243063
2.3251999999999984	0.0076430489366077	0.0168537754959571	0.0980362498230577	0.0141840273212847	0.0184089494882306	0.0233173837482231
2.335199999999998	0.0076396574224261	0.0169189131996444	0.0985047907141199	0.0142268339763493	0.0184548724874916	0.0232921087278539
2.3451999999999984	0.0076351861435042	0.0169830110394561	0.0989915984577627	0.0142694122059169	0.0185010354821269	0.0232638391110605
2.355199999999998	0.0076296563242581	0.017046038660973	0.099496430613921	0.0143117384345183	0.0185473905785231	0.0232325742561499
2.365199999999998	0.0076230907735706	0.0171079663634817	0.1000190260664268	0.0143537898778612	0.0185938898387197	0.0231983194692578
2.375199999999998	0.0076155138251133	0.0171687650667036	0.1005591049747472	0.0143955444959084	0.0186404852805412	0.023161085923559
2.385199999999998	0.0076069512739455	0.0172284062799782	0.101116368770556	0.0144369809435659	0.0186871288808784	0.0231208905615629
2.395199999999998	0.0075974303096304	0.0172868620740762	0.1016905002003916	0.0144780785194896	0.0187337725823665	0.0230777559817957
2.405199999999998	0.0075869794461273	0.0173441050557928	0.1022811634152949	0.0145188171135211	0.018780368303701	0.023031710311178
2.4151999999999982	0.0075756284487279	0.0174001083454464	0.1028880041079582	0.0145591771532627	0.0188268679538152	0.0229827870643818
2.425199999999998	0.0075634082583193	0.017454845557407	0.1035106496975682	0.0145991395503003	0.0188732234501161	0.0229310249914033
2.4351999999999983	0.0075503509132606	0.0175082907837844	0.1041487095622096	0.0146386856465712	0.0189193867409436	0.0228764679145254
2.445199999999998	0.0075364894691742	0.0175604185814281	0.1048017753184091	0.0146777971613578	0.0189653098323866	0.0228191645557635
2.4551999999999983	0.0075218579169592	0.0176112039624055	0.1054694211471532	0.0147164561393568	0.0190109448195778	0.0227591683558138
2.465199999999998	0.0075064910993316	0.0176606223881071	0.1061512041655823	0.0147546449002421	0.0190562439225798	0.0226965372854608
2.4751999999999983	0.0074904246262013	0.0177086497671054	0.1068466648435994	0.0147923459900924	0.0191011595269714	0.0226313336503542
2.485199999999998	0.0074736947891936	0.0177552624568477	0.1075553274648599	0.0148295421350143	0.019145644229221	0.0225636238900419
2.495199999999998	0.0074563384756339	0.0178004372692168	0.1082767006319537	0.0148662161972441	0.0191896508869076	0.0224934783721148
2.505199999999998	0.0074383930823082	0.0178441514799388	0.109010277815952	0.0149023511339673	0.0192331326738093	0.0224209711822944
2.515199999999998	0.0074198964293083	0.0178863828417617	0.1097555379507663	0.0149379299590539	0.019276043139847	0.0223461799112529
2.525199999999998	0.0074008866742484	0.0179271096012757	0.1105119460728961	0.0149729357078661	0.0193183362758306	0.0222691854389209
2.535199999999998	0.0073814022271219	0.0179663105192123	0.1112789540071567	0.0150073514052514	0.0193599665829248	0.0221900717170071
2.545199999999998	0.0073614816660435	0.0180039648940316	0.112056001098911	0.0150411600368012	0.0194008891467147	0.0221089255504307
2.555199999999998	0.0073411636541047	0.0180400525885969	0.1128425149931853	0.0150743445234202	0.0194410597157168	0.0220258363783341
2.565199999999998	0.007320486857556	0.0180745540597271	0.1136379124608172	0.0151068876992407	0.0194804347841298	0.0219408960553124
2.575199999999998	0.007299489865518	0.0181074503904082	0.1144416002715128	0.015138772292912	0.0195189716785796	0.0218541986334553
2.585199999999998	0.0072782111114081	0.0181387233244331	0.1152529761134015	0.0151699809122948	0.0195566286485595	0.0217658401457606
2.595199999999998	0.0072566887962585	0.0181683553032264	0.1160714295583625	0.0152004960325998	0.0195933649602341	0.021675918391428
2.605199999999998	0.0072349608140878	0.0181963295045987	0.1168963430720583	0.0152302999880169	0.0196291409932321	0.0215845327234969
2.615199999999998	0.0072130646794809	0.0182226298831773	0.1177270930672462	0.0152593749668989	0.0196639183400136	0.0214917838392341
2.625199999999998	0.0071910374575266	0.0182472412122579	0.1185630509985777	0.0152877030105832	0.0196976599073444	0.0213977735736394
2.635199999999998	0.0071689156962669	0.0182701491268179	0.1194035844967675	0.0153152660159415	0.0197303300193623	0.0213026046964041
2.6451999999999978	0.0071467353618102	0.0182913401674208	0.1202480585397173	0.0153420457417475	0.0197618945216608	0.0212063807126459
2.655199999999998	0.0071245317762585	0.0183108018247321	0.1210958366579247	0.0153680238189466	0.0197923208857637	0.0211092056677427
2.665199999999998	0.0071023395585879	0.0183285225843603	0.1219462821712728	0.0153931817649027	0.0198215783133075	0.0210111839565762
2.675199999999998	0.0070801925686069	0.0183444919717406	0.1227987594540662	0.0154175010016803	0.0198496378391972	0.0209124201374745
2.685199999999998	0.007058123854101	0.0183587005967811	0.1236526352249447	0.015440962878406	0.0198764724329437	0.0208130187511252
2.695199999999998	0.0070361656012545	0.0183711401980159	0.1245072798580728	0.0154635486977293	0.0199020570973443	0.0207130841447278
2.705199999999998	0.0070143490884224	0.0183818036860265	0.1253620687118197	0.0154852397463768	0.0199263689636221	0.0206127203016513
2.715199999999998	0.0069927046433087	0.018390685185924	0.1262163834710131	0.0155060173297652	0.0199493873821227	0.0205120306768715
2.725199999999998	0.0069712616035986	0.0183977800787016	0.1270696134987692	0.0155258628106014	0.0199710940076767	0.0204111180384627
2.735199999999998	0.0069500482810815	0.0184030850412835	0.1279211571938178	0.0155447576513572	0.0199914728787892	0.0203100843154173
2.745199999999998	0.0069290919292958	0.0184065980851203	0.1287704233491422	0.0155626834604623	0.0200105104899049	0.0202090304520556
2.755199999999998	0.0069084187147136	0.0184083185932167	0.1296168325076191	0.0155796220420251	0.0200281958560986	0.0201080562692788
2.765199999999998	0.0068880536914744	0.0184082473555139	0.130459818310167	0.0155955554488727	0.0200445205696362	0.0200072603329124
